<svg xmlns="http://www.w3.org/2000/svg" width="373" height="145" fill="none" viewBox="0 0 373 145"><path fill="#026670" d="M373 132.704C373.003 135.135 371.989 137.513 370.087 139.535C368.186 141.557 365.482 143.133 362.317 144.064C359.153 144.995 355.671 145.238 352.311 144.763C348.952 144.289 345.867 143.117 343.446 141.397L186.071 29.6816L28.6956 141.397C25.3845 143.45 21.0965 144.532 16.7025 144.423C12.3085 144.313 8.13769 143.021 5.037 140.808C1.93632 138.596 0.138158 135.628 0.0076357 132.508C-0.122887 129.389 1.42401 126.351 4.33423 124.011L173.955 3.60347C175.563 2.46111 177.471 1.55487 179.573 0.936565C181.674 0.318256 183.926 0 186.201 0C188.475 0 190.728 0.318256 192.829 0.936565C194.93 1.55487 196.839 2.46111 198.446 3.60347L367.808 124.011C369.438 125.145 370.736 126.497 371.627 127.989C372.518 129.481 372.985 131.083 373 132.704Z"/></svg>