<svg xmlns="http://www.w3.org/2000/svg" width="134" height="168" fill="none" viewBox="0 0 134 168"><path fill="#026670" fill-rule="evenodd" d="M0.333252 163.167C0.333252 162.062 0.77224 161.002 1.55364 160.22C2.33504 159.439 3.39485 159 4.49992 159H129.5C130.605 159 131.665 159.439 132.446 160.22C133.228 161.002 133.667 162.062 133.667 163.167C133.667 164.272 133.228 165.331 132.446 166.113C131.665 166.894 130.605 167.333 129.5 167.333H4.49992C3.39485 167.333 2.33504 166.894 1.55364 166.113C0.77224 165.331 0.333252 164.272 0.333252 163.167Z" clip-rule="evenodd"/><path fill="#026670" fill-rule="evenodd" d="M16.9998 75.6666V159H37.8332V75.6666H16.9998ZM12.8332 67.3333C11.7281 67.3333 10.6683 67.7722 9.88689 68.5536C9.10549 69.335 8.6665 70.3948 8.6665 71.4999V163.167C8.6665 164.272 9.10549 165.331 9.88689 166.113C10.6683 166.894 11.7281 167.333 12.8332 167.333H41.9998C43.1049 167.333 44.1647 166.894 44.9461 166.113C45.7275 165.331 46.1665 164.272 46.1665 163.167V71.4999C46.1665 70.3948 45.7275 69.335 44.9461 68.5536C44.1647 67.7722 43.1049 67.3333 41.9998 67.3333H12.8332Z" clip-rule="evenodd"/><path fill="#026670" fill-rule="evenodd" d="M37.8333 0.666626L104.5 25.6666V84H83.6666C82.5615 84 81.5017 84.4389 80.7203 85.2203C79.9389 86.0017 79.4999 87.0616 79.4999 88.1666V159H37.8333V0.666626ZM50.3333 38.1666H58.6666V46.5H50.3333V38.1666ZM75.3333 38.1666H66.9999V46.5H75.3333V38.1666ZM83.6666 38.1666H91.9999V46.5H83.6666V38.1666ZM58.6666 54.8333H50.3333V63.1666H58.6666V54.8333ZM66.9999 54.8333H75.3333V63.1666H66.9999V54.8333ZM91.9999 54.8333H83.6666V63.1666H91.9999V54.8333ZM50.3333 71.5H58.6666V79.8333H50.3333V71.5ZM75.3333 71.5H66.9999V79.8333H75.3333V71.5ZM83.6666 71.5H91.9999V79.8333H83.6666V71.5ZM58.6666 88.1666H50.3333V96.5H58.6666V88.1666ZM66.9999 88.1666H75.3333V96.5H66.9999V88.1666ZM50.3333 104.833H58.6666V113.167H50.3333V104.833ZM75.3333 104.833H66.9999V113.167H75.3333V104.833ZM58.6666 121.5H50.3333V129.833H58.6666V121.5ZM66.9999 121.5H75.3333V129.833H66.9999V121.5ZM50.3333 138.167H58.6666V146.5H50.3333V138.167ZM75.3333 138.167H66.9999V146.5H75.3333V138.167Z" clip-rule="evenodd"/><path fill="#026670" fill-rule="evenodd" d="M87.8333 92.3333V159H117V92.3333H87.8333ZM83.6667 84C82.5616 84 81.5018 84.439 80.7204 85.2204C79.939 86.0018 79.5 87.0616 79.5 88.1667V163.167C79.5 164.272 79.939 165.332 80.7204 166.113C81.5018 166.894 82.5616 167.333 83.6667 167.333H121.167C122.272 167.333 123.332 166.894 124.113 166.113C124.894 165.332 125.333 164.272 125.333 163.167V88.1667C125.333 87.0616 124.894 86.0018 124.113 85.2204C123.332 84.439 122.272 84 121.167 84H83.6667Z" clip-rule="evenodd"/><path fill="#026670" fill-rule="evenodd" d="M108.667 109H96.1666V100.667H108.667V109Z" clip-rule="evenodd"/><path fill="#026670" fill-rule="evenodd" d="M108.667 125.667H96.1666V117.333H108.667V125.667Z" clip-rule="evenodd"/><path fill="#026670" fill-rule="evenodd" d="M108.667 142.333H96.1666V134H108.667V142.333Z" clip-rule="evenodd"/><path fill="#026670" fill-rule="evenodd" d="M108.667 159H96.1666V150.667H108.667V159Z" clip-rule="evenodd"/><path fill="#026670" fill-rule="evenodd" d="M29.4998 38.1666V71.5H21.1665V38.1666H29.4998Z" clip-rule="evenodd"/></svg>