<svg xmlns="http://www.w3.org/2000/svg" fill="#fef9c7" viewBox="0 0 48 48"><path d="M44,13.5H12c-0.83,0-1.5,0.67-1.5,1.5v4.5H8c-0.83,0-1.5,0.67-1.5,1.5s0.67,1.5,1.5,1.5h2.5v1H6c-0.83,0-1.5,0.67-1.5,1.5
		s0.67,1.5,1.5,1.5h4.5v1H4c-0.83,0-1.5,0.67-1.5,1.5s0.67,1.5,1.5,1.5h6.5V33c0,0.83,0.67,1.5,1.5,1.5h32c0.83,0,1.5-0.67,1.5-1.5
		V15C45.5,14.17,44.83,13.5,44,13.5z M38.9,16.5L28,23.24L17.1,16.5H38.9z M42.5,31.5h-29V17.8l13.71,8.48
		c0.24,0.15,0.52,0.22,0.79,0.22s0.55-0.07,0.79-0.22L42.5,17.8V31.5z"/></svg>