<svg width="95" height="97" viewBox="0 0 95 97" fill="none" xmlns="http://www.w3.org/2000/svg">
<path d="M47.5 6.92859C69.9845 6.92859 88.2143 25.5422 88.2143 48.5C88.2143 71.4578 69.9845 90.0714 47.5 90.0714C25.0155 90.0714 6.78571 71.4578 6.78571 48.5C6.78571 25.5422 25.0155 6.92859 47.5 6.92859ZM47.5 27.7143C46.8851 27.7143 46.291 27.9417 45.8275 28.3544C45.3641 28.7671 45.0627 29.3371 44.9791 29.9592L44.9553 30.3125V45.9018H29.6875C29.0428 45.902 28.4222 46.1521 27.9511 46.6015C27.48 47.0509 27.1935 47.6662 27.1495 48.3229C27.1056 48.9797 27.3075 49.629 27.7143 50.1397C28.1212 50.6503 28.7027 50.9842 29.3414 51.074L29.6875 51.0982H44.9553V66.6875C44.9555 67.3458 45.2005 67.9795 45.6406 68.4605C46.0808 68.9415 46.6833 69.234 47.3265 69.2789C47.9698 69.3238 48.6057 69.1177 49.1058 68.7022C49.606 68.2868 49.933 67.693 50.0209 67.0409L50.0446 66.6875V51.0982H65.3125C65.9572 51.098 66.5778 50.848 67.0489 50.3985C67.52 49.9491 67.8065 49.3339 67.8504 48.6771C67.8944 48.0203 67.6925 47.371 67.2857 46.8604C66.8788 46.3497 66.2973 46.0158 65.6586 45.9261L65.3125 45.9018H50.0446V30.3125C50.0446 29.6234 49.7765 28.9626 49.2993 28.4753C48.8221 27.988 48.1749 27.7143 47.5 27.7143Z" fill="#9FEDD7"/>
</svg>
